<svg xmlns="http://www.w3.org/2000/svg" width="196" height="63" viewBox="0 0 196 63" fill="none">
  <path fill-rule="evenodd" clip-rule="evenodd" d="M11.8826 44.0465H17.5318C18.084 44.0465 18.5299 44.4925 18.5299 45.0447V50.6939C18.5299 50.9487 18.4344 51.2036 18.2432 51.3947C17.8504 51.7876 17.2238 51.7876 16.8416 51.3947L11.1924 45.7455C11.0119 45.565 10.9057 45.3208 10.9057 45.0447C10.9057 44.4925 11.3517 44.0465 11.9039 44.0465H11.8826ZM18.5299 25.1453V34.7764C18.5299 35.0313 18.4344 35.2861 18.2432 35.4773C17.8504 35.8701 17.2238 35.8701 16.8416 35.4773L7.19979 25.8567C7.01927 25.6762 6.91309 25.432 6.91309 25.1559C6.91309 24.6037 7.35907 24.1577 7.91124 24.1577H17.5424C18.0946 24.1577 18.5406 24.6037 18.5406 25.1559L18.5299 25.1453ZM38.4188 45.0341V54.6653C38.4188 54.9201 38.3232 55.1749 38.1321 55.3661C37.7392 55.759 37.1127 55.759 36.7304 55.3661L27.0992 45.7349C26.9187 45.5544 26.8125 45.3102 26.8125 45.0341C26.8125 44.4819 27.2585 44.0359 27.8107 44.0359H37.4419C37.994 44.0359 38.44 44.4819 38.44 45.0341H38.4188Z" fill="url(#paint0_linear_501_2836)"/>
  <path fill-rule="evenodd" clip-rule="evenodd" d="M61.2381 2.33605V61.4928C61.2593 61.7795 61.1637 62.0663 60.9514 62.2786C60.5585 62.6715 59.932 62.6715 59.5497 62.2786L43.0057 45.7347C42.8252 45.5542 42.719 45.3099 42.719 45.0339C42.719 44.4817 43.165 44.0357 43.7172 44.0357H53.7094C53.8474 44.0357 53.9749 44.0145 54.0917 43.9614C54.2085 43.9189 54.3147 43.8339 54.4102 43.7384C54.5058 43.6428 54.5801 43.5366 54.6332 43.4198C54.6757 43.303 54.7076 43.1756 54.7076 43.0375C54.7076 42.9632 54.7076 42.8995 54.6969 42.8464C54.6863 42.7827 54.6651 42.719 54.6332 42.6553C54.612 42.6022 54.5801 42.5491 54.5377 42.4854C54.5377 42.4854 54.4846 42.4004 54.4527 42.3686C54.4209 42.3367 54.389 42.3155 54.3678 42.2836L40.1281 28.0439C40.0325 27.9484 39.9157 27.874 39.8095 27.8316C39.6927 27.7785 39.5547 27.7572 39.4272 27.7572C39.2998 27.7572 39.1724 27.7785 39.045 27.8316C38.9388 27.874 38.8432 27.9377 38.7583 28.0121L38.7158 28.0545C38.7158 28.0545 38.6521 28.1183 38.6202 28.1607L38.599 28.2032C38.5565 28.2669 38.5247 28.32 38.5034 28.3731C38.4822 28.4262 38.4609 28.4899 38.4503 28.5536C38.4503 28.6067 38.4291 28.6492 38.4291 28.6917V28.7448V28.8297V38.737C38.4291 38.9918 38.3335 39.2467 38.1424 39.4378C37.7495 39.8307 37.123 39.8307 36.7407 39.4378C28.628 31.3251 31.1871 33.8842 23.1382 25.8352C22.9576 25.6547 22.8514 25.4105 22.8514 25.1344C22.8514 24.5822 23.2974 24.1362 23.8496 24.1362H33.8418C33.9799 24.1362 34.1073 24.115 34.2241 24.0619C34.3409 24.0088 34.4471 23.9345 34.5426 23.8389C34.6382 23.7434 34.7125 23.6372 34.7656 23.5204C34.8081 23.4036 34.84 23.2761 34.84 23.1381C34.84 23.0638 34.84 23 34.8293 22.947C34.8187 22.8832 34.7975 22.8195 34.7656 22.7558C34.7444 22.7027 34.7125 22.6496 34.6701 22.5859C34.6701 22.5859 34.617 22.501 34.5851 22.4691C34.5533 22.4373 34.5214 22.416 34.5002 22.3842L20.218 8.16572C20.1224 8.07015 20.0056 7.99582 19.8995 7.95334C19.7826 7.90025 19.6446 7.87901 19.5172 7.87901C19.3898 7.87901 19.2623 7.90025 19.1349 7.95334C19.0287 7.99582 18.9331 8.05953 18.8482 8.13386L18.8057 8.17634C18.8057 8.17634 18.742 8.24005 18.7102 8.28252L18.6889 8.325C18.6464 8.38871 18.6146 8.4418 18.5933 8.4949C18.5721 8.54799 18.5509 8.6117 18.5403 8.67542C18.5296 8.74975 18.519 8.81346 18.519 8.87717V18.795C18.5403 19.0817 18.4447 19.3685 18.2323 19.5808C17.8394 19.9737 17.2129 19.9737 16.8306 19.5808L0.286705 3.03688C0.106187 2.85637 0 2.61214 0 2.33605C0 1.78388 0.445986 1.33789 0.998158 1.33789H60.2399C60.7815 1.33789 61.2274 1.78388 61.2274 2.33605H61.2381ZM32.8861 26.706C31.2402 26.706 29.9023 28.0439 29.9023 29.6898C29.9023 31.3357 31.2402 32.6737 32.8861 32.6737C34.532 32.6737 35.87 31.3357 35.87 29.6898C35.87 28.0439 34.532 26.706 32.8861 26.706ZM32.1428 7.69849C31.9198 7.65602 31.6862 7.63478 31.442 7.63478C31.3039 7.63478 31.1871 7.63478 31.0916 7.6454C30.996 7.6454 30.8898 7.66664 30.773 7.69849H30.7411C30.6137 7.73035 30.5075 7.76221 30.412 7.78344C30.2952 7.8153 30.1784 7.85777 30.0615 7.91087C29.9554 7.95334 29.8492 8.00644 29.7324 8.07015C29.6262 8.12324 29.5306 8.18695 29.435 8.25067C29.3501 8.30376 29.2545 8.37809 29.159 8.46304C29.074 8.52675 28.9997 8.59047 28.936 8.65418C28.9041 8.68603 28.8829 8.71789 28.851 8.73913C28.7873 8.80284 28.7236 8.87717 28.6493 8.96212C28.5643 9.05769 28.5006 9.15326 28.4369 9.23821C28.3732 9.33377 28.3095 9.43996 28.2564 9.53553C28.1927 9.65234 28.1502 9.75852 28.0971 9.86471C28.0546 9.98152 28.0121 10.0983 27.9697 10.2151C27.9378 10.3107 27.9166 10.4169 27.8847 10.5443C27.8635 10.6717 27.8422 10.7885 27.8316 10.8947C27.8316 10.9903 27.821 11.1071 27.821 11.2451C27.821 11.3832 27.821 11.5 27.8316 11.5956C27.8316 11.6699 27.8529 11.7655 27.8741 11.861L27.8953 11.9354C27.9166 12.0522 27.9378 12.1371 27.959 12.2008L28.0121 12.3813C28.0121 12.3813 28.0546 12.4875 28.0652 12.5406L28.0971 12.615C28.1396 12.7211 28.182 12.8167 28.2351 12.9123C28.2882 13.0185 28.3413 13.114 28.405 13.199C28.4581 13.2839 28.5112 13.3583 28.5643 13.422L28.5962 13.4644C28.6599 13.5388 28.7236 13.6131 28.7873 13.6874C28.8404 13.7405 28.8829 13.7936 28.936 13.8467C29.0103 13.9211 29.0952 13.9848 29.1908 14.0591C29.2651 14.1228 29.3607 14.1865 29.4669 14.2502C29.5625 14.3139 29.658 14.367 29.7536 14.4201C29.8492 14.4732 29.9447 14.5157 30.0615 14.5582C30.1784 14.6007 30.2952 14.6431 30.412 14.6856C30.5075 14.7175 30.6137 14.7387 30.7411 14.7705C30.8686 14.8024 30.9854 14.813 31.0916 14.8236C31.1871 14.8236 31.3039 14.8343 31.442 14.8343C31.58 14.8343 31.6968 14.8343 31.7924 14.8236C31.8667 14.8236 31.9623 14.8024 32.0579 14.7812L32.1322 14.7599C32.249 14.7387 32.334 14.7175 32.3977 14.6962L32.5782 14.6431C32.5782 14.6431 32.6844 14.6007 32.7375 14.59L32.8118 14.5582C32.9286 14.5157 33.0348 14.4626 33.1304 14.4095C33.2259 14.3564 33.3109 14.3033 33.4064 14.2502L33.4383 14.229C33.5445 14.1547 33.6401 14.091 33.725 14.0166C33.7993 13.9529 33.8843 13.8786 33.9799 13.783C34.1497 13.6131 34.2984 13.4326 34.4258 13.2415C34.5639 13.0397 34.6701 12.8273 34.7656 12.615C34.8506 12.4026 34.9249 12.1796 34.9674 11.9354C35.0099 11.7124 35.0311 11.4788 35.0311 11.2345C35.0311 11.0965 35.0311 10.9797 35.0205 10.8841C35.0205 10.7885 34.9992 10.6824 34.978 10.5655V10.5337C34.9462 10.4063 34.9143 10.3001 34.8931 10.2045C34.8612 10.0877 34.8187 9.9709 34.7656 9.85409C34.7232 9.7479 34.6701 9.64172 34.617 9.52491C34.5639 9.41872 34.5002 9.32316 34.4365 9.22759C34.3727 9.14264 34.309 9.04707 34.2241 8.9515C34.1391 8.84531 34.0648 8.76036 33.9905 8.68603C33.8206 8.51613 33.6401 8.36747 33.4489 8.24005C33.2472 8.102 33.0348 7.99582 32.8224 7.90025C32.61 7.8153 32.387 7.74097 32.1428 7.69849ZM52.0316 27.5873C51.8087 27.5448 51.575 27.5236 51.3308 27.5236C51.1928 27.5236 51.076 27.5236 50.9804 27.5342C50.8848 27.5342 50.7786 27.5555 50.6618 27.5873H50.63C50.5026 27.6192 50.3964 27.651 50.3008 27.6723C50.184 27.7041 50.0672 27.7466 49.9504 27.7997C49.8442 27.8422 49.738 27.8953 49.6212 27.959C49.5256 28.0121 49.4194 28.0758 49.3239 28.1395C49.2389 28.1926 49.1434 28.2669 49.0478 28.3519C48.9628 28.4156 48.8885 28.4899 48.8248 28.543C48.7929 28.5749 48.7717 28.6067 48.7398 28.628C48.6761 28.6917 48.6124 28.766 48.5381 28.851C48.4531 28.9465 48.3894 29.0421 48.3257 29.127C48.262 29.2226 48.1983 29.3288 48.1452 29.4244C48.0815 29.5412 48.039 29.6474 47.9965 29.7535C47.9541 29.8703 47.9116 29.9872 47.8691 30.104C47.8373 30.1995 47.816 30.3057 47.7842 30.4331C47.7629 30.5606 47.7417 30.6774 47.7311 30.7836C47.7311 30.8791 47.7205 30.9959 47.7205 31.134C47.7205 31.272 47.7205 31.3888 47.7311 31.4844C47.7311 31.5587 47.7523 31.6543 47.7735 31.7499L47.7948 31.8242C47.816 31.941 47.8373 32.0259 47.8585 32.0897L47.9116 32.2702C47.9116 32.2702 47.9541 32.3764 47.9647 32.4295L47.9965 32.5038C48.039 32.61 48.0815 32.7055 48.1346 32.8011C48.1877 32.9073 48.2514 33.0029 48.3045 33.0878C48.3576 33.1728 48.4107 33.2471 48.4638 33.3108L48.4956 33.3533C48.5593 33.4276 48.623 33.5019 48.6868 33.5763C48.7398 33.6294 48.7823 33.6825 48.8354 33.7356C48.9097 33.8099 48.9947 33.8736 49.0796 33.9479C49.154 34.0116 49.2495 34.0754 49.3557 34.1391C49.4513 34.2028 49.5469 34.2559 49.6424 34.309C49.738 34.3621 49.8336 34.4045 49.9504 34.447C50.0672 34.4895 50.184 34.532 50.3008 34.5744C50.3964 34.6063 50.5026 34.6275 50.63 34.6594C50.7574 34.6912 50.8742 34.7019 50.9804 34.7125C51.076 34.7125 51.1928 34.7231 51.3308 34.7231C51.4689 34.7231 51.5857 34.7231 51.6812 34.7125C51.7556 34.7125 51.8511 34.6912 51.9467 34.67L52.021 34.6488C52.1378 34.6275 52.2228 34.6063 52.2865 34.5851L52.467 34.532C52.467 34.532 52.5732 34.4895 52.6263 34.4789L52.7006 34.447C52.8174 34.4045 52.9236 34.3514 53.0192 34.2983C53.1041 34.2453 53.1997 34.1922 53.2953 34.1391L53.3271 34.1178C53.4333 34.0435 53.5289 33.9798 53.6138 33.9055C53.6882 33.8417 53.7731 33.7674 53.8687 33.6718C54.0386 33.5019 54.1872 33.3214 54.3147 33.1303C54.4527 32.9285 54.5589 32.7162 54.6545 32.5038C54.7394 32.2914 54.8137 32.0684 54.8562 31.8242C54.8987 31.6012 54.9306 31.3676 54.9306 31.1234C54.9306 30.9853 54.9306 30.8685 54.9199 30.7729C54.9199 30.6774 54.8987 30.5712 54.8775 30.4544V30.4225C54.8456 30.2951 54.8137 30.1889 54.7925 30.0933C54.7607 29.9765 54.7182 29.8597 54.6651 29.7429C54.6226 29.6367 54.5695 29.5305 54.5164 29.4137C54.4633 29.3076 54.3996 29.212 54.3359 29.1164C54.2828 29.0315 54.2085 28.9359 54.1235 28.8403C54.0386 28.7341 53.9642 28.6492 53.8899 28.5749C53.72 28.405 53.5395 28.2563 53.3484 28.1289C53.1466 27.9908 52.9342 27.8846 52.7219 27.7891C52.5095 27.7041 52.2865 27.6298 52.0423 27.5873H52.0316ZM53.9961 6.93395C53.8899 6.88085 53.7731 6.82776 53.6351 6.76405L53.5714 6.74281C53.4652 6.70034 53.359 6.65786 53.2422 6.626C53.1254 6.59415 53.0192 6.56229 52.913 6.54106C52.8174 6.51982 52.7112 6.5092 52.5838 6.48796C52.467 6.47734 52.3714 6.46672 52.2759 6.46672C52.1485 6.46672 52.021 6.46672 51.8936 6.46672H51.7768C51.66 6.46672 51.5326 6.48796 51.3945 6.49858C51.2777 6.5092 51.1715 6.53044 51.0653 6.55167H51.0335C50.9061 6.58353 50.7893 6.61539 50.6618 6.65786C50.5238 6.70034 50.407 6.74281 50.2902 6.7959C50.0353 6.90209 49.7805 7.04013 49.5469 7.1888C49.3239 7.33746 49.1115 7.50736 48.9204 7.70911C48.7186 7.91087 48.5487 8.12324 48.4001 8.33562C48.2514 8.56923 48.1133 8.81346 48.0072 9.06831C47.901 9.31254 47.8266 9.578 47.7735 9.85409C47.7205 10.1196 47.6886 10.3956 47.6886 10.6717C47.6886 10.831 47.6886 10.9691 47.7098 11.0859C47.7205 11.2027 47.7417 11.3407 47.7735 11.4894C47.8054 11.6487 47.8373 11.7761 47.8691 11.8823C47.901 11.9991 47.9541 12.1265 48.0072 12.2752C48.0602 12.4132 48.124 12.53 48.1771 12.6468C48.2408 12.753 48.3045 12.8804 48.3894 13.0078C48.4744 13.1353 48.5593 13.2415 48.6337 13.3476C48.708 13.4432 48.7929 13.5388 48.9097 13.645C49.1115 13.8467 49.3239 14.0166 49.5363 14.1653C49.7699 14.3139 50.0141 14.452 50.2689 14.5582C50.5132 14.6644 50.7786 14.7387 51.0547 14.7918C51.3202 14.8449 51.5963 14.8767 51.8724 14.8767C52.0316 14.8767 52.1697 14.8767 52.2865 14.8555C52.4033 14.8449 52.5413 14.8236 52.69 14.7918C52.8387 14.7599 52.9661 14.7281 53.0829 14.6962C53.1997 14.6644 53.3271 14.6113 53.4758 14.5476C53.7413 14.4414 53.9855 14.3033 54.2191 14.1547C54.4421 14.006 54.6545 13.8361 54.8456 13.6343C55.0367 13.4432 55.2066 13.2415 55.3553 13.0185C55.504 12.7955 55.642 12.5619 55.7376 12.3176C55.8331 12.084 55.9181 11.8398 55.9712 11.5743C56.0243 11.3301 56.0561 11.0752 56.0668 10.831C56.0668 10.7036 56.0668 10.5762 56.0668 10.4487V10.3319C56.0668 10.2257 56.0455 10.1089 56.0349 9.9709C56.0243 9.85409 56.003 9.7479 55.9818 9.65234V9.62048C55.95 9.50367 55.9181 9.38687 55.8862 9.27006C55.8438 9.14264 55.8013 9.02583 55.7588 8.91964C55.7163 8.81346 55.6632 8.69665 55.5889 8.56923C55.5252 8.45242 55.4615 8.34624 55.3872 8.22943C55.3234 8.13386 55.2491 8.02767 55.1535 7.92149C55.058 7.80468 54.973 7.70911 54.8881 7.62416C54.7819 7.51798 54.6969 7.43303 54.612 7.36931C54.5164 7.29498 54.4102 7.21003 54.2934 7.1357C54.1872 7.06137 54.0704 6.98704 53.9536 6.93395H53.9961ZM39.406 24.1469H53.6988C53.8368 24.1469 53.9643 24.1256 54.0811 24.0725C54.1979 24.0194 54.304 23.9451 54.3996 23.8495C54.4952 23.754 54.5695 23.6478 54.6226 23.531C54.6651 23.4142 54.6969 23.2867 54.6969 23.1487C54.6969 23.0744 54.6969 23.0107 54.6863 22.9576C54.6757 22.8939 54.6545 22.8301 54.6226 22.7664C54.6014 22.7133 54.5695 22.6602 54.527 22.5965C54.527 22.5965 54.4739 22.5116 54.4421 22.4797C54.4102 22.4479 54.3784 22.4266 54.3571 22.3948L40.1175 8.1551C40.0219 8.05953 39.9051 7.9852 39.7989 7.94272C39.6821 7.88963 39.544 7.86839 39.4166 7.86839C39.2892 7.86839 39.1618 7.88963 39.0344 7.94272C38.9282 7.9852 38.8326 8.04891 38.7477 8.12324L38.7052 8.16572C38.7052 8.16572 38.6415 8.22943 38.6096 8.2719L38.5884 8.31438C38.5459 8.37809 38.514 8.43118 38.4928 8.48428C38.4716 8.53737 38.4503 8.60108 38.4397 8.6648C38.4397 8.71789 38.4185 8.76036 38.4185 8.80284V8.85593V8.94088V23.1487C38.4185 23.2867 38.4397 23.4142 38.4928 23.531C38.5353 23.6478 38.6202 23.754 38.7158 23.8495C38.8114 23.9451 38.9175 24.0194 39.045 24.0725C39.1618 24.115 39.2892 24.1469 39.4166 24.1469H39.406Z" fill="url(#paint1_linear_501_2836)"/>
  <path fill-rule="evenodd" clip-rule="evenodd" d="M83.8452 15.3016C83.8452 15.3016 83.8983 15.4184 83.8983 15.4927C83.8983 15.5989 83.8558 15.6944 83.7815 15.7794C83.7072 15.8643 83.6116 15.9068 83.4842 15.9068H81.6153C81.3817 15.9068 81.2011 15.8006 81.0843 15.5989L78.0368 10.7249H76.359V15.4821C76.359 15.5989 76.3165 15.7051 76.2316 15.7794C76.1466 15.8643 76.0404 15.9068 75.913 15.9068H74.2777C74.1609 15.9068 74.0547 15.8643 73.9804 15.7794C73.8955 15.6944 73.853 15.5989 73.853 15.4821V3.88645C73.853 3.75902 73.8955 3.65283 73.9698 3.56788C74.0441 3.48293 74.1503 3.44046 74.2777 3.44046H75.913C76.0404 3.44046 76.1466 3.48293 76.2316 3.56788C76.3165 3.65283 76.359 3.75902 76.359 3.88645V8.46311L77.8881 8.48434L80.7552 3.76964C80.8826 3.55727 81.095 3.45108 81.3923 3.45108H83.2081C83.3249 3.45108 83.4205 3.48293 83.4842 3.55727C83.5479 3.6316 83.5797 3.71655 83.5797 3.82273C83.5797 3.88645 83.5479 3.95016 83.4948 4.03511L80.1499 9.46126L83.8346 15.3016H83.8452ZM73.1415 62.9689C73.0247 62.9689 72.9185 62.9264 72.8336 62.8521C72.7486 62.7778 72.7062 62.6716 72.7062 62.5442V58.6577C72.7062 58.5409 72.7486 58.4347 72.8336 58.3604C72.9185 58.2754 73.0141 58.233 73.1415 58.233H73.5026C74.0654 58.233 74.4689 57.7233 74.7237 56.7039C74.9786 55.6845 75.106 54.1766 75.106 52.1803V48.4531C75.106 48.3363 75.1485 48.2302 75.2334 48.1452C75.3184 48.0603 75.4139 48.0178 75.5414 48.0178H83.2399C83.3674 48.0178 83.4735 48.0603 83.5585 48.1452C83.6434 48.2302 83.6859 48.3363 83.6859 48.4638V58.233H84.546C84.6628 58.233 84.769 58.2754 84.854 58.3604C84.9389 58.4453 84.992 58.5409 84.992 58.6577V62.5442C84.992 62.661 84.9495 62.7672 84.8646 62.8521C84.7796 62.9371 84.6735 62.9795 84.546 62.9795H82.9108C82.7939 62.9795 82.6878 62.9371 82.6028 62.8627C82.5179 62.7884 82.4754 62.6822 82.4754 62.5548V60.5054H75.244V62.5548C75.244 62.6822 75.2016 62.7884 75.1272 62.8627C75.0529 62.9371 74.9467 62.9795 74.8193 62.9795H73.1628L73.1415 62.9689ZM81.1587 58.233V50.2902H77.5377V52.4989C77.5377 55.2916 77.2085 57.203 76.5608 58.233H81.1587ZM95.186 60.4948C95.0692 60.4948 94.963 60.4523 94.8886 60.3673C94.8037 60.2824 94.7612 60.1868 94.7612 60.0594V50.2796H90.9173V52.4883C90.9173 54.4527 90.7792 55.9924 90.5137 57.1286C90.2483 58.2648 89.7917 59.0931 89.1545 59.624C88.5174 60.155 87.6148 60.431 86.468 60.4735C86.3512 60.4841 86.245 60.4417 86.1601 60.3567C86.0751 60.2718 86.022 60.1656 86.022 60.0488V58.679C86.022 58.5622 86.0645 58.4666 86.1388 58.3923C86.2132 58.3179 86.3087 58.2754 86.4362 58.2542C87.137 58.148 87.6573 57.5958 87.9971 56.6083C88.3369 55.6208 88.5068 54.1448 88.5068 52.1803V48.4531C88.5068 48.3257 88.5493 48.2195 88.6342 48.1452C88.7192 48.0709 88.8147 48.0284 88.9316 48.0284H96.8425C96.9699 48.0284 97.0761 48.0709 97.161 48.1558C97.246 48.2408 97.2885 48.347 97.2885 48.4744V60.07C97.2885 60.1868 97.246 60.293 97.161 60.3779C97.0761 60.4629 96.9699 60.5054 96.8425 60.5054H95.2072L95.186 60.4948ZM108.98 48.0178C109.107 48.0178 109.213 48.0603 109.288 48.1346C109.362 48.2089 109.404 48.3151 109.404 48.4425V60.0594C109.404 60.1762 109.362 60.2824 109.288 60.3673C109.213 60.4523 109.107 60.4948 108.98 60.4948H107.344C107.217 60.4948 107.111 60.4523 107.026 60.3779C106.941 60.3036 106.898 60.1974 106.898 60.07V56.003H104.934L102.566 60.0169C102.492 60.1762 102.407 60.293 102.3 60.3779C102.194 60.4629 102.046 60.5054 101.855 60.5054H100.219C100.124 60.5054 100.039 60.4735 99.9644 60.3992C99.8901 60.3249 99.8476 60.2399 99.8476 60.1337C99.8476 60.07 99.8688 60.0063 99.9007 59.9426L102.481 55.7163C101.738 55.4296 101.154 54.973 100.74 54.3571C100.325 53.7306 100.113 52.9661 100.113 52.0635C100.113 51.3202 100.283 50.63 100.623 50.0247C100.963 49.4088 101.462 48.931 102.141 48.57C102.821 48.2089 103.628 48.039 104.573 48.039H108.99L108.98 48.0178ZM106.898 50.0141H104.658C104.042 50.0141 103.564 50.2052 103.214 50.5769C102.874 50.9485 102.693 51.4476 102.693 52.0635C102.693 53.3271 103.352 53.9536 104.658 53.9536H106.898V50.0141ZM124.504 60.4948C124.387 60.4948 124.281 60.4523 124.196 60.3673C124.111 60.2824 124.069 60.1868 124.069 60.0594V50.2796H120.225V52.4883C120.225 54.4527 120.087 55.9924 119.821 57.1286C119.556 58.2648 119.099 59.0931 118.462 59.624C117.825 60.155 116.922 60.431 115.776 60.4735C115.659 60.4841 115.553 60.4417 115.468 60.3567C115.383 60.2718 115.33 60.1656 115.33 60.0488V58.679C115.33 58.5622 115.372 58.4666 115.446 58.3923C115.521 58.3179 115.616 58.2754 115.744 58.2542C116.445 58.148 116.965 57.5958 117.305 56.6083C117.645 55.6208 117.814 54.1448 117.814 52.1803V48.4531C117.814 48.3257 117.857 48.2195 117.942 48.1452C118.027 48.0709 118.122 48.0284 118.239 48.0284H126.15C126.278 48.0284 126.384 48.0709 126.469 48.1558C126.554 48.2408 126.596 48.347 126.596 48.4744V60.07C126.596 60.1868 126.554 60.293 126.469 60.3779C126.384 60.4629 126.278 60.5054 126.15 60.5054H124.515L124.504 60.4948ZM139.508 60.6753C137.852 60.6753 136.599 60.2505 135.739 59.4116C134.879 58.5728 134.401 57.4259 134.305 55.9712C134.284 55.6632 134.273 55.4403 134.273 55.3128H131.863V60.07C131.863 60.1868 131.82 60.293 131.736 60.3779C131.651 60.4629 131.544 60.5054 131.417 60.5054H129.782C129.665 60.5054 129.559 60.4629 129.474 60.3779C129.389 60.293 129.346 60.1974 129.346 60.07V48.4531C129.346 48.3257 129.389 48.2195 129.474 48.1452C129.559 48.0709 129.654 48.0284 129.782 48.0284H131.417C131.544 48.0284 131.651 48.0709 131.736 48.1558C131.82 48.2408 131.863 48.3363 131.863 48.4638V53.0617H134.284L134.305 52.5095C134.422 51.1078 134.911 49.9822 135.771 49.1327C136.631 48.2832 137.873 47.8585 139.508 47.8585C141.144 47.8585 142.46 48.3045 143.331 49.2071C144.202 50.099 144.669 51.2883 144.733 52.7643C144.754 53.4546 144.765 53.9643 144.765 54.2934C144.765 54.6226 144.754 55.1217 144.733 55.8119C144.669 57.3198 144.213 58.5091 143.342 59.3798C142.471 60.2505 141.197 60.6859 139.508 60.6859V60.6753ZM139.508 58.6046C140.305 58.6046 140.931 58.371 141.399 57.9144C141.866 57.4472 142.11 56.7357 142.142 55.7588C142.163 55.0474 142.174 54.5483 142.174 54.2616C142.174 53.9536 142.163 53.4546 142.142 52.7643C142.11 51.7874 141.855 51.076 141.388 50.6087C140.921 50.1415 140.294 49.9185 139.508 49.9185C138.723 49.9185 138.096 50.1521 137.629 50.6087C137.162 51.076 136.907 51.7874 136.875 52.7643C136.864 53.1041 136.854 53.6032 136.854 54.2616C136.854 54.9199 136.854 55.3978 136.875 55.7588C136.907 56.7357 137.162 57.4472 137.618 57.9144C138.075 58.3816 138.712 58.6046 139.508 58.6046ZM146.602 62.9689C146.485 62.9689 146.379 62.9264 146.294 62.8521C146.209 62.7778 146.166 62.6716 146.166 62.5442V58.6577C146.166 58.5409 146.209 58.4347 146.294 58.3604C146.379 58.2754 146.474 58.233 146.602 58.233H146.963C147.526 58.233 147.929 57.7233 148.184 56.7039C148.439 55.6845 148.566 54.1766 148.566 52.1803V48.4531C148.566 48.3363 148.609 48.2302 148.694 48.1452C148.779 48.0603 148.874 48.0178 149.002 48.0178H156.7C156.828 48.0178 156.934 48.0603 157.019 48.1452C157.104 48.2302 157.146 48.3363 157.146 48.4638V58.233H158.006C158.123 58.233 158.229 58.2754 158.314 58.3604C158.399 58.4453 158.452 58.5409 158.452 58.6577V62.5442C158.452 62.661 158.41 62.7672 158.325 62.8521C158.24 62.9371 158.134 62.9795 158.006 62.9795H156.371C156.254 62.9795 156.148 62.9371 156.063 62.8627C155.978 62.7884 155.936 62.6822 155.936 62.5548V60.5054H148.704V62.5548C148.704 62.6822 148.662 62.7884 148.587 62.8627C148.513 62.9371 148.407 62.9795 148.279 62.9795H146.623L146.602 62.9689ZM154.619 58.233V50.2902H150.998V52.4989C150.998 55.2916 150.669 57.203 150.021 58.233H154.619ZM160.82 60.4948C160.703 60.4948 160.597 60.4523 160.512 60.3673C160.427 60.2824 160.385 60.1868 160.385 60.0594V48.4638C160.385 48.3363 160.427 48.2302 160.502 48.1452C160.576 48.0603 160.682 48.0178 160.81 48.0178H168.667C168.795 48.0178 168.901 48.0603 168.986 48.1452C169.071 48.2302 169.113 48.3363 169.113 48.4638V49.6531C169.113 49.7805 169.071 49.8867 168.986 49.961C168.901 50.0353 168.795 50.0778 168.667 50.0778H162.827V53.1997H168.275C168.402 53.1997 168.508 53.2422 168.593 53.3271C168.678 53.4121 168.72 53.5183 168.72 53.6457V54.7713C168.72 54.8987 168.678 55.0049 168.593 55.0792C168.508 55.1535 168.402 55.196 168.275 55.196H162.827V58.4241H168.816C168.943 58.4241 169.05 58.4666 169.135 58.5409C169.22 58.6152 169.262 58.7214 169.262 58.8489V60.0594C169.262 60.1868 169.22 60.293 169.135 60.3673C169.05 60.4417 168.943 60.4841 168.816 60.4841H160.82V60.4948ZM171.917 60.4948C171.789 60.4948 171.683 60.4523 171.609 60.3673C171.534 60.2824 171.492 60.1762 171.492 60.0488V48.4638C171.492 48.3363 171.534 48.2302 171.609 48.1452C171.683 48.0603 171.789 48.0178 171.917 48.0178H173.573C173.69 48.0178 173.796 48.0603 173.881 48.1452C173.966 48.2302 174.009 48.3363 174.009 48.4638V56.6083L179.838 48.3257C179.944 48.124 180.114 48.0178 180.359 48.0178H181.856C181.983 48.0178 182.089 48.0603 182.164 48.1452C182.238 48.2302 182.281 48.3363 182.281 48.4638V60.0594C182.281 60.1762 182.238 60.2824 182.164 60.3673C182.089 60.4523 181.983 60.4948 181.856 60.4948H180.221C180.093 60.4948 179.987 60.4523 179.902 60.3673C179.817 60.2824 179.775 60.1868 179.775 60.0594V52.0954L173.966 60.1868C173.849 60.3886 173.679 60.4948 173.446 60.4948H171.927H171.917ZM176.886 47.3063C175.856 47.3063 175.102 47.0833 174.624 46.6373C174.147 46.1914 173.913 45.618 173.913 44.8959C173.913 44.8003 173.945 44.726 173.998 44.6516C174.062 44.5879 174.136 44.5561 174.242 44.5561H175.272C175.378 44.5561 175.463 44.5879 175.516 44.6516C175.58 44.7154 175.601 44.8003 175.601 44.8959C175.601 45.5755 176.026 45.9153 176.865 45.9153C177.704 45.9153 178.107 45.5755 178.107 44.8959C178.107 44.8003 178.139 44.726 178.192 44.6516C178.256 44.5879 178.33 44.5561 178.437 44.5561H179.467C179.573 44.5561 179.658 44.5879 179.711 44.6516C179.775 44.7154 179.796 44.8003 179.796 44.8959C179.796 45.6073 179.562 46.1914 179.095 46.6373C178.628 47.0833 177.874 47.3063 176.844 47.3063H176.886ZM89.9934 16.0767C88.3688 16.0767 87.1051 15.6626 86.2025 14.8449C85.3 14.0273 84.8221 12.8062 84.7796 11.1921C84.769 10.8523 84.7584 10.3426 84.7584 9.68426C84.7584 9.0259 84.7584 8.49496 84.7796 8.15516C84.8221 6.57298 85.3106 5.36244 86.2344 4.52357C87.1582 3.68469 88.4112 3.25994 89.9934 3.25994C91.5756 3.25994 92.8074 3.68469 93.7418 4.52357C94.6763 5.36244 95.1647 6.57298 95.2072 8.15516C95.2284 8.84538 95.2391 9.35508 95.2391 9.68426C95.2391 10.0134 95.2284 10.5125 95.2072 11.1921C95.1647 12.8062 94.6869 14.0273 93.7737 14.8449C92.8711 15.6626 91.6075 16.0767 89.9934 16.0767ZM89.9934 14.0167C90.7898 14.0167 91.4163 13.7831 91.8836 13.3052C92.3508 12.8274 92.595 12.1053 92.6269 11.1178C92.6481 10.4063 92.6587 9.92849 92.6587 9.67364C92.6587 9.39755 92.6481 8.91971 92.6269 8.2295C92.595 7.25257 92.3402 6.5305 91.8623 6.05266C91.3845 5.57482 90.7686 5.33059 89.9934 5.33059C89.2183 5.33059 88.5811 5.57482 88.1033 6.05266C87.6255 6.5305 87.3812 7.26319 87.36 8.2295C87.3494 8.56929 87.3387 9.05775 87.3387 9.67364C87.3387 10.2895 87.3387 10.7567 87.36 11.1178C87.3812 12.0947 87.6255 12.8168 88.1033 13.2946C88.5705 13.7725 89.2076 14.0167 90.004 14.0167H89.9934ZM97.9893 15.9068C97.8725 15.9068 97.7663 15.8643 97.692 15.7794C97.607 15.6944 97.5646 15.5989 97.5646 15.4821V3.88645C97.5646 3.75902 97.607 3.65283 97.6814 3.56788C97.7557 3.48293 97.8619 3.44046 97.9893 3.44046H99.6246C99.752 3.44046 99.8582 3.48293 99.9432 3.56788C100.028 3.65283 100.071 3.75902 100.071 3.88645V8.46311H105.263V3.88645C105.263 3.75902 105.306 3.65283 105.391 3.56788C105.475 3.48293 105.571 3.44046 105.688 3.44046H107.344C107.472 3.44046 107.578 3.48293 107.652 3.56788C107.727 3.65283 107.769 3.75902 107.769 3.88645V15.4715C107.769 15.5883 107.727 15.6944 107.652 15.7688C107.578 15.8537 107.472 15.8962 107.344 15.8962H105.688C105.571 15.8962 105.465 15.8537 105.391 15.7688C105.306 15.6838 105.263 15.5883 105.263 15.4715V10.7143H100.071V15.4715C100.071 15.5883 100.028 15.6944 99.9432 15.7688C99.8582 15.8537 99.752 15.8962 99.6246 15.8962H97.9893V15.9068ZM113.726 15.9068C113.609 15.9068 113.503 15.8643 113.418 15.7794C113.333 15.6944 113.291 15.5989 113.291 15.4821V5.67039H109.999C109.882 5.67039 109.776 5.62791 109.691 5.54296C109.606 5.45801 109.564 5.35183 109.564 5.2244V3.88645C109.564 3.75902 109.606 3.65283 109.681 3.56788C109.755 3.48293 109.861 3.44046 109.988 3.44046H119.089C119.216 3.44046 119.322 3.48293 119.407 3.56788C119.492 3.65283 119.535 3.75902 119.535 3.88645V5.2244C119.535 5.35183 119.492 5.45801 119.407 5.54296C119.322 5.62791 119.216 5.67039 119.089 5.67039H115.818V15.4715C115.818 15.5883 115.776 15.6944 115.701 15.7688C115.627 15.8537 115.521 15.8962 115.393 15.8962H113.716L113.726 15.9068ZM120.575 15.9068C120.469 15.9068 120.384 15.875 120.31 15.8006C120.235 15.7263 120.204 15.6413 120.204 15.5352L120.235 15.3759L124.504 3.89706C124.621 3.59974 124.833 3.45108 125.141 3.45108H127.095C127.403 3.45108 127.615 3.59974 127.732 3.89706L132.001 15.3759L132.033 15.5352C132.033 15.6413 131.99 15.7263 131.916 15.8006C131.842 15.875 131.757 15.9068 131.661 15.9068H130.079C129.835 15.9068 129.654 15.79 129.559 15.567L128.741 13.4114H123.474L122.657 15.567C122.561 15.79 122.391 15.9068 122.136 15.9068H120.554H120.575ZM124.122 11.3514H128.146L126.139 5.87214L124.133 11.3514H124.122ZM143.682 15.3016C143.682 15.3016 143.735 15.4184 143.735 15.4927C143.735 15.5989 143.692 15.6944 143.618 15.7794C143.544 15.8643 143.448 15.9068 143.321 15.9068H141.452C141.218 15.9068 141.038 15.8006 140.921 15.5989L137.873 10.7249H136.195V15.4821C136.195 15.5989 136.153 15.7051 136.068 15.7794C135.983 15.8643 135.877 15.9068 135.749 15.9068H134.114C133.997 15.9068 133.891 15.8643 133.817 15.7794C133.732 15.6944 133.689 15.5989 133.689 15.4821V3.88645C133.689 3.75902 133.732 3.65283 133.806 3.56788C133.881 3.48293 133.987 3.44046 134.114 3.44046H135.749C135.877 3.44046 135.983 3.48293 136.068 3.56788C136.153 3.65283 136.195 3.75902 136.195 3.88645V8.46311L137.724 8.48434L140.592 3.76964C140.719 3.55727 140.931 3.45108 141.229 3.45108H143.044C143.161 3.45108 143.257 3.48293 143.321 3.55727C143.384 3.6316 143.416 3.71655 143.416 3.82273C143.416 3.88645 143.384 3.95016 143.331 4.03511L139.986 9.46126L143.671 15.3016H143.682ZM148.821 15.9068C148.704 15.9068 148.598 15.8643 148.513 15.7794C148.428 15.6944 148.386 15.5989 148.386 15.4821V5.67039H145.094C144.977 5.67039 144.871 5.62791 144.786 5.54296C144.701 5.45801 144.659 5.35183 144.659 5.2244V3.88645C144.659 3.75902 144.701 3.65283 144.775 3.56788C144.85 3.48293 144.956 3.44046 145.083 3.44046H154.183C154.311 3.44046 154.417 3.48293 154.502 3.56788C154.587 3.65283 154.629 3.75902 154.629 3.88645V5.2244C154.629 5.35183 154.587 5.45801 154.502 5.54296C154.417 5.62791 154.311 5.67039 154.183 5.67039H150.913V15.4715C150.913 15.5883 150.87 15.6944 150.796 15.7688C150.722 15.8537 150.616 15.8962 150.488 15.8962H148.81L148.821 15.9068ZM156.87 15.9068C156.753 15.9068 156.647 15.8643 156.573 15.7794C156.488 15.6944 156.445 15.5989 156.445 15.4821V3.88645C156.445 3.75902 156.488 3.65283 156.562 3.56788C156.636 3.48293 156.743 3.44046 156.87 3.44046H158.505C158.633 3.44046 158.739 3.48293 158.824 3.56788C158.909 3.65283 158.951 3.75902 158.951 3.88645V8.46311H164.144V3.88645C164.144 3.75902 164.186 3.65283 164.271 3.56788C164.356 3.48293 164.452 3.44046 164.569 3.44046H166.225C166.353 3.44046 166.459 3.48293 166.533 3.56788C166.607 3.65283 166.65 3.75902 166.65 3.88645V15.4715C166.65 15.5883 166.607 15.6944 166.533 15.7688C166.459 15.8537 166.353 15.8962 166.225 15.8962H164.569C164.452 15.8962 164.346 15.8537 164.271 15.7688C164.186 15.6838 164.144 15.5883 164.144 15.4715V10.7143H158.951V15.4715C158.951 15.5883 158.909 15.6944 158.824 15.7688C158.739 15.8537 158.633 15.8962 158.505 15.8962H156.87V15.9068ZM169.867 15.9068C169.751 15.9068 169.644 15.8643 169.57 15.7794C169.485 15.6944 169.443 15.5989 169.443 15.4821V3.86521C169.443 3.73778 169.485 3.6316 169.57 3.55727C169.655 3.48293 169.751 3.44046 169.867 3.44046H171.503C171.63 3.44046 171.736 3.48293 171.821 3.56788C171.906 3.65283 171.949 3.7484 171.949 3.87583V7.93217H173.902C175.325 7.93217 176.419 8.26135 177.194 8.93033C177.969 9.59931 178.352 10.5762 178.352 11.8717C178.352 12.6469 178.182 13.3371 177.842 13.9424C177.502 14.5582 177.003 15.0361 176.334 15.3865C175.665 15.7369 174.858 15.9068 173.902 15.9068H169.857H169.867ZM180.316 15.9068C180.199 15.9068 180.093 15.8643 180.008 15.7794C179.923 15.6944 179.881 15.5989 179.881 15.4821V3.86521C179.881 3.73778 179.923 3.6316 180.008 3.55727C180.093 3.48293 180.189 3.44046 180.316 3.44046H182.026C182.153 3.44046 182.259 3.48293 182.334 3.55727C182.408 3.6316 182.45 3.73778 182.45 3.86521V15.4715C182.45 15.5883 182.408 15.6944 182.334 15.7688C182.259 15.8537 182.153 15.8962 182.026 15.8962H180.316V15.9068ZM173.807 13.8999C174.423 13.8999 174.911 13.7087 175.262 13.3371C175.612 12.9654 175.782 12.4664 175.782 11.8505C175.782 11.2346 175.612 10.7461 175.283 10.4169C174.954 10.0878 174.455 9.92849 173.807 9.92849H171.959V13.8999H173.807ZM185.647 15.9068C185.519 15.9068 185.413 15.8643 185.339 15.7794C185.264 15.6944 185.222 15.5883 185.222 15.4608V3.88645C185.222 3.75902 185.264 3.65283 185.339 3.56788C185.413 3.48293 185.519 3.44046 185.647 3.44046H187.303C187.42 3.44046 187.526 3.48293 187.611 3.56788C187.696 3.65283 187.739 3.75902 187.739 3.88645V12.0204L193.558 3.7484C193.664 3.54665 193.834 3.44046 194.078 3.44046H195.575C195.703 3.44046 195.809 3.48293 195.883 3.56788C195.957 3.65283 196 3.75902 196 3.88645V15.4715C196 15.5883 195.957 15.6944 195.883 15.7688C195.809 15.8537 195.703 15.8962 195.575 15.8962H193.94C193.812 15.8962 193.706 15.8537 193.621 15.7688C193.536 15.6838 193.494 15.5883 193.494 15.4715V7.51804L187.696 15.5989C187.579 15.8006 187.409 15.9068 187.176 15.9068H185.668H185.647ZM190.616 2.73963C189.586 2.73963 188.832 2.51663 188.354 2.07065C187.877 1.62466 187.643 1.05125 187.643 0.339799C187.643 0.24423 187.675 0.169899 187.728 0.0955683C187.792 0.0318561 187.866 0 187.972 0H189.002C189.108 0 189.193 0.0318561 189.246 0.0955683C189.31 0.159281 189.331 0.24423 189.331 0.339799C189.331 1.0194 189.756 1.35919 190.595 1.35919C191.434 1.35919 191.837 1.0194 191.837 0.339799C191.837 0.24423 191.869 0.169899 191.922 0.0955683C191.986 0.0318561 192.06 0 192.167 0H193.197C193.303 0 193.388 0.0318561 193.441 0.0955683C193.505 0.159281 193.526 0.24423 193.526 0.339799C193.526 1.05125 193.292 1.63528 192.825 2.07065C192.358 2.51663 191.604 2.73963 190.574 2.73963H190.616ZM83.3036 40.6803C83.1868 40.6803 83.0807 40.6378 82.9957 40.5634C82.9108 40.4891 82.8683 40.3829 82.8683 40.2555V38.1955H74.2884C74.1609 38.1955 74.0547 38.153 73.9804 38.0681C73.9061 37.9831 73.8636 37.8769 73.8636 37.7495V26.1645C73.8636 26.0371 73.9061 25.9309 73.991 25.8565C74.076 25.7822 74.1716 25.7397 74.2884 25.7397H75.9236C76.0511 25.7397 76.1573 25.7822 76.2422 25.8672C76.3272 25.9521 76.3696 26.0477 76.3696 26.1751V35.9443H81.5622V26.1751C81.5622 26.0583 81.6046 25.9521 81.6896 25.8672C81.7745 25.7822 81.8701 25.7397 81.9869 25.7397H83.6434C83.7709 25.7397 83.877 25.7822 83.9514 25.8565C84.0257 25.9309 84.0682 26.0371 84.0682 26.1645V35.9337H84.9177C85.0451 35.9337 85.1513 35.9762 85.2362 36.0611C85.3212 36.1461 85.3637 36.2416 85.3637 36.3584V40.2555C85.3637 40.3829 85.3212 40.4891 85.2362 40.5634C85.1513 40.6378 85.0451 40.6803 84.9177 40.6803H83.2824H83.3036ZM87.7847 38.1849C87.6679 38.1849 87.5617 38.1424 87.4874 38.0574C87.4025 37.9725 87.36 37.8769 87.36 37.7601V26.1751C87.36 26.0477 87.4025 25.9415 87.4768 25.8565C87.5511 25.7716 87.6573 25.7291 87.7847 25.7291H95.632C95.7594 25.7291 95.8656 25.7716 95.9505 25.8565C96.0355 25.9415 96.0779 26.0477 96.0779 26.1751V27.3644C96.0779 27.4918 96.0355 27.598 95.9505 27.6723C95.8656 27.7467 95.7594 27.7891 95.632 27.7891H89.7917V30.9004H95.2391C95.3665 30.9004 95.4727 30.9429 95.5576 31.0279C95.6426 31.1128 95.6851 31.219 95.6851 31.3464V32.472C95.6851 32.5994 95.6426 32.7056 95.5576 32.7799C95.4727 32.8543 95.3665 32.8967 95.2391 32.8967H89.7917V36.1142H95.77C95.8974 36.1142 96.0036 36.1567 96.0886 36.231C96.1735 36.3054 96.216 36.4115 96.216 36.539V37.7495C96.216 37.8769 96.1735 37.9831 96.0886 38.0574C96.0036 38.1318 95.8974 38.1742 95.77 38.1742H87.7741L87.7847 38.1849ZM98.8707 38.1849C98.7539 38.1849 98.6477 38.1424 98.5733 38.0574C98.4884 37.9725 98.4459 37.8769 98.4459 37.7601V26.1751C98.4459 26.0477 98.4884 25.9415 98.5627 25.8565C98.637 25.7716 98.7432 25.7291 98.8707 25.7291H100.506C100.633 25.7291 100.74 25.7716 100.824 25.8565C100.909 25.9415 100.952 26.0477 100.952 26.1751V30.7518H106.144V26.1751C106.144 26.0477 106.187 25.9415 106.272 25.8565C106.357 25.7716 106.452 25.7291 106.569 25.7291H108.226C108.353 25.7291 108.459 25.7716 108.534 25.8565C108.608 25.9415 108.65 26.0477 108.65 26.1751V37.7601C108.65 37.8769 108.608 37.9831 108.534 38.0574C108.459 38.1424 108.353 38.1849 108.226 38.1849H106.569C106.452 38.1849 106.346 38.1424 106.272 38.0574C106.187 37.9725 106.144 37.8769 106.144 37.7601V33.0029H100.952V37.7601C100.952 37.8769 100.909 37.9831 100.824 38.0574C100.74 38.1424 100.633 38.1849 100.506 38.1849H98.8707ZM114.608 38.1849C114.491 38.1849 114.385 38.1424 114.31 38.0574C114.225 37.9725 114.183 37.8769 114.183 37.7601V27.9484H110.891C110.774 27.9484 110.668 27.906 110.594 27.821C110.509 27.7361 110.466 27.6299 110.466 27.5024V26.1645C110.466 26.0371 110.509 25.9309 110.583 25.8459C110.657 25.761 110.764 25.7185 110.891 25.7185H119.991C120.119 25.7185 120.225 25.761 120.31 25.8459C120.395 25.9309 120.437 26.0371 120.437 26.1645V27.5024C120.437 27.6299 120.395 27.7361 120.31 27.821C120.225 27.906 120.119 27.9484 119.991 27.9484H116.721V37.7601C116.721 37.8769 116.678 37.9831 116.604 38.0574C116.53 38.1424 116.423 38.1849 116.296 38.1849H114.618H114.608ZM122.657 38.1849C122.54 38.1849 122.434 38.1424 122.359 38.0574C122.274 37.9725 122.232 37.8769 122.232 37.7601V26.1751C122.232 26.0477 122.274 25.9415 122.349 25.8565C122.423 25.7716 122.529 25.7291 122.657 25.7291H127.424C128.858 25.7291 129.983 26.0689 130.801 26.7485C131.619 27.4281 132.033 28.405 132.033 29.7005C132.033 30.996 131.619 31.9517 130.801 32.61C129.983 33.2684 128.858 33.5976 127.424 33.5976H124.812V37.7601C124.812 37.8875 124.77 37.9937 124.685 38.0681C124.6 38.1424 124.494 38.1849 124.366 38.1849H122.657ZM127.339 31.6013C128.03 31.6013 128.55 31.442 128.911 31.1128C129.272 30.7836 129.453 30.3058 129.453 29.6793C129.453 29.0528 129.283 28.5856 128.932 28.2351C128.582 27.8953 128.051 27.7148 127.339 27.7148H124.78V31.5906H127.339V31.6013Z" fill="#312783"/>
  <defs>
    <linearGradient id="paint0_linear_501_2836" x1="26.1011" y1="36.4648" x2="16.077" y2="46.4888" gradientUnits="userSpaceOnUse">
      <stop stop-color="#006380"/>
      <stop offset="1" stop-color="#A4D0DC"/>
    </linearGradient>
    <linearGradient id="paint1_linear_501_2836" x1="56.4065" y1="6.1694" x2="34.4577" y2="28.1183" gradientUnits="userSpaceOnUse">
      <stop stop-color="#312783"/>
      <stop offset="1" stop-color="#AD4582"/>
    </linearGradient>
  </defs>
</svg>
