<svg
                width="14"
                height="14"
                viewBox="0 0 14 14"
                fill="none"
                xmlns="http://www.w3.org/2000/svg"
              >
                <path
                  d="M12.3481 0.00940531C12.0549 0.00940531 11.7738 0.125854 11.5665 0.333133C11.3593 0.540412 11.2428 0.821543 11.2428 1.11468V9.50371L2.08009 0.329935C1.87196 0.121808 1.58968 0.00488281 1.29534 0.00488281C1.00101 0.00488281 0.718726 0.121808 0.510599 0.329935C0.302472 0.538062 0.185547 0.820343 0.185547 1.11468C0.185547 1.40902 0.302472 1.6913 0.510599 1.89942L9.68438 11.0621H1.29534C1.00221 11.0621 0.721076 11.1786 0.513797 11.3859C0.306518 11.5932 0.190069 11.8743 0.190069 12.1674C0.190069 12.4606 0.306518 12.7417 0.513797 12.949C0.721076 13.1562 1.00221 13.2727 1.29534 13.2727H12.3481C12.4925 13.271 12.6352 13.2409 12.7681 13.1843C13.0382 13.0721 13.2528 12.8575 13.3649 12.5874C13.4216 12.4545 13.4516 12.3119 13.4534 12.1674V1.11468C13.4534 0.821543 13.3369 0.540412 13.1296 0.333133C12.9224 0.125854 12.6412 0.00940531 12.3481 0.00940531Z"
                  fill="white"
                />
              </svg>
